<?xml version="1.0" encoding="utf-8"?>
<!-- Generator: Adobe Illustrator 16.0.2, SVG Export Plug-In . SVG Version: 6.00 Build 0)  -->
<!DOCTYPE svg PUBLIC "-//W3C//DTD SVG 1.1//EN" "http://www.w3.org/Graphics/SVG/1.1/DTD/svg11.dtd">
<svg version="1.1" xmlns="http://www.w3.org/2000/svg" xmlns:xlink="http://www.w3.org/1999/xlink" x="0px" y="0px" width="200px"
	 height="200px" viewBox="0 0 200 200" enable-background="new 0 0 200 200" xml:space="preserve">
<g id="Layer_4">
	<rect x="93.5" y="0.5" fill="#B0ABAB" stroke="#B79E9E" stroke-miterlimit="10" width="107" height="107"/>
</g>
<g id="Layer_3">
</g>
<g id="Layer_2">
	<polygon fill="#A19B9B" points="109.625,60.123 -0.065,203 0,0 	"/>
	<polygon fill="#A19B9B" points="141.154,91.656 -1.72,201.345 201.275,201.277 	"/>
	<path fill="#898282" d="M34,200.965c51.5-8,110-108.554,110-108.554L169.4,67H200v134L34,200.965z"/>
	<path fill="#898282" d="M-0.065,172.002c8-51.5,108.592-110.125,108.592-110.125L142,35.287V2L0,0L-0.065,172.002z"/>
	<path fill="#867878" d="M158.5,82"/>
	<path fill="#C6D5CA" d="M110.116,60.614c0,0-110.113,128.886-108.115,139.386l0.521-0.4l-0.4,0.521
		c10.5,2,141.195-106.556,141.195-106.556L110.116,60.614z"/>
</g>
<g id="Layer_1">
	<g>
		<polygon fill="#655A5A" points="0,198 0,200 2,200 		"/>
		
			<rect x="-0.415" y="198.999" transform="matrix(0.707 0.7072 -0.7072 0.707 141.0243 57.5951)" fill="#655A5A" width="2.831" height="0.001"/>
		<path fill="#655A5A" d="M0,0v52.07c52.451-15.973,110.354-28.365,141.632-16.783c16.914-9.662,36.607-18.552,42.209-12.947
			c5.895,5.892-4.236,27.364-14.44,44.802c8.104,31.667-3.037,84.317-17.546,132.858H202V0H0z"/>
	</g>
</g>
</svg>
